<svg viewBox="0 0 1464 271" fill="none" xmlns="http://www.w3.org/2000/svg">
<path d="M54 0.409668C54 0.426668 54.02 0.436674 54.034 0.425674L54.055 0.408661C54.069 0.397661 54.091 0.399673 54.102 0.414673L157.779 129.172C157.922 129.349 158 129.571 158 129.799L158.001 212.6C158.001 213.545 156.812 213.963 156.221 213.225L55.78 87.9307C55.189 87.1927 54 87.6107 54 88.5557V269.389C54 269.941 53.552 270.389 53 270.389H1C0.448 270.389 0 269.941 0 269.389V1.38867C0 0.835672 0.448 0.388672 1 0.388672H53.979C53.991 0.388672 54 0.397668 54 0.409668ZM254.003 269.389C254.003 269.941 253.553 270.389 253.003 270.389H201C200.448 270.389 200 269.941 200 269.389V1.38867C200 0.835672 200.448 0.388672 201 0.388672H253.003C253.553 0.388672 254.003 0.835672 254.003 1.38867V269.389Z" fill="currentColor"></path>
<path d="M533.002 52.3887C533.002 53.4927 532.102 54.3887 531.002 54.3887H369.002C367.892 54.3887 367.002 55.2837 367.002 56.3887V214.389C367.002 215.493 367.892 216.389 369.002 216.389H531.002C532.102 216.389 533.002 217.284 533.002 218.389V268.389C533.002 269.493 532.102 270.389 531.002 270.389H315.002C313.892 270.389 313.002 269.493 313.002 268.389V2.38867C313.002 1.28367 313.892 0.388672 315.002 0.388672H531.002C532.102 0.388672 533.002 1.28367 533.002 2.38867V52.3887ZM467.002 107.389C480.802 107.389 492.002 118.581 492.002 132.389C492.002 146.196 480.802 157.389 467.002 157.389H434.002C420.192 157.389 409.002 146.196 409.002 132.389C409.002 118.581 420.192 107.389 434.002 107.389H467.002Z" fill="currentColor"></path>
<path d="M1345 34.3887C1345 35.4927 1344.1 36.3887 1343 36.3887H1286.63C1285.53 36.3887 1284.63 37.2837 1284.63 38.3887V94.3887C1284.63 95.4927 1285.53 96.3887 1286.63 96.3887H1343C1344.1 96.3887 1345 97.2837 1345 98.3887V114.389C1345 115.493 1344.1 116.389 1343 116.389H1267C1265.89 116.389 1265 115.493 1265 114.389V18.3887C1265 17.2837 1265.89 16.3887 1267 16.3887H1343C1344.1 16.3887 1345 17.2837 1345 18.3887V34.3887ZM1320.82 56.0187C1325.94 56.0197 1330.08 60.1657 1330.08 65.2787C1330.08 70.3927 1325.94 74.5377 1320.82 74.5377H1309.16C1304.05 74.5377 1299.9 70.3927 1299.9 65.2787C1299.9 60.1657 1304.05 56.0197 1309.16 56.0187H1320.82Z" fill="currentColor"></path>
<path fill-rule="evenodd" clip-rule="evenodd" d="M649.103 268.504C648.723 268.966 648.153 269.233 647.553 269.233H583.913C582.223 269.233 581.293 267.266 582.363 265.962L685.083 141.293C685.693 140.554 685.693 139.487 685.083 138.749L573.373 3.27299C572.293 1.96899 573.223 0.00100708 574.913 0.00100708H638.553C639.153 0.00100708 639.723 0.267997 640.103 0.727997L719.013 96.369C719.813 97.339 721.303 97.339 722.093 96.368L800.903 0.727997C801.283 0.266997 801.843 0 802.443 0H865.763C867.453 0 868.383 1.966 867.313 3.271L649.103 268.504ZM858.323 265.621C859.393 266.927 858.463 268.888 856.773 268.888L790.943 268.889C790.343 268.889 789.783 268.623 789.403 268.165L747.553 217.722C746.943 216.982 746.943 215.91 747.553 215.17L780.953 174.819C781.753 173.849 783.243 173.853 784.043 174.827L858.323 265.621Z" fill="currentColor"></path>
<path d="M1084 0.388672C1111.61 0.388672 1134 22.7737 1134 50.3887V219.389L1133.99 220.035C1133.65 247.136 1111.74 269.041 1084.64 269.385L1084 269.389H958.002L957.352 269.385C930.032 269.039 908.002 246.787 908.002 219.389V217.389C908.002 216.284 908.892 215.389 910.002 215.389H1078C1079.1 215.389 1080 214.493 1080 213.389V56.3887C1080 55.2837 1079.1 54.3887 1078 54.3887H964.002C962.892 54.3887 962.002 55.2837 962.002 56.3887V159.389C962.002 160.493 961.102 161.389 960.002 161.389H910.002C908.892 161.389 908.002 160.493 908.002 159.389V50.3887C908.002 22.7737 930.382 0.388672 958.002 0.388672H1084Z" fill="currentColor"></path>
<path fill-rule="evenodd" clip-rule="evenodd" d="M1391 114.389C1391 115.493 1390.1 116.389 1389 116.389H1373C1371.89 116.389 1371 115.493 1371 114.389V18.3887C1371 17.2837 1371.89 16.3887 1373 16.3887H1389C1390.1 16.3887 1391 17.2837 1391 18.3887V114.389ZM1448.35 113.111C1449.43 114.415 1448.51 116.388 1446.81 116.388H1425.63C1425.02 116.389 1424.44 116.11 1424.07 115.633L1413.01 101.725C1412.42 100.981 1412.44 99.9227 1413.05 99.1947L1423.46 86.7837C1424.26 85.8267 1425.73 85.8307 1426.53 86.7917L1448.35 113.111ZM1461.27 16.3867C1462.96 16.3867 1463.89 18.3507 1462.82 19.6557L1407.14 87.5077C1405.94 88.9727 1403.56 88.1007 1403.59 86.2057L1403.99 62.6447C1403.99 62.1917 1404.15 61.7547 1404.44 61.4047L1440.98 17.1137C1441.36 16.6527 1441.92 16.3867 1442.52 16.3867H1461.27Z" fill="currentColor"></path>
<path d="M1241 34.3887C1241 35.4927 1240.1 36.3887 1239 36.3887H1215C1213.89 36.3887 1213 37.2837 1213 38.3887V114.389C1213 115.493 1212.1 116.389 1211 116.389H1195C1193.89 116.389 1193 115.493 1193 114.389V38.3887C1193 37.2837 1192.1 36.3887 1191 36.3887H1166C1164.89 36.3887 1164 35.4927 1164 34.3887V18.3887C1164 17.2837 1164.89 16.3887 1166 16.3887H1239C1240.1 16.3887 1241 17.2837 1241 18.3887V34.3887Z" fill="currentColor"></path>
</svg>