<svg viewBox="0 0 2235 675" fill="none" xmlns="http://www.w3.org/2000/svg">
<path d="M825 203.41C825 203.427 825.02 203.437 825.034 203.426L825.055 203.409C825.069 203.398 825.091 203.4 825.102 203.415L928.779 332.172C928.922 332.349 929 332.571 929 332.799L929.001 415.6C929.001 416.545 927.812 416.963 927.221 416.225L826.78 290.931C826.189 290.193 825 290.611 825 291.556V472.389C825 472.941 824.552 473.389 824 473.389H772C771.448 473.389 771 472.941 771 472.389V204.389C771 203.836 771.448 203.389 772 203.389H824.979C824.991 203.389 825 203.398 825 203.41ZM1025 472.389C1025 472.941 1024.55 473.389 1024 473.389H972C971.448 473.389 971 472.941 971 472.389V204.389C971 203.836 971.448 203.389 972 203.389H1024C1024.55 203.389 1025 203.836 1025 204.389V472.389Z" fill="currentColor"></path>
<path d="M1304 255.389C1304 256.493 1303.1 257.389 1302 257.389H1140C1138.89 257.389 1138 258.284 1138 259.389V417.389C1138 418.493 1138.89 419.389 1140 419.389H1302C1303.1 419.389 1304 420.284 1304 421.389V471.389C1304 472.493 1303.1 473.389 1302 473.389H1086C1084.89 473.389 1084 472.493 1084 471.389V205.389C1084 204.284 1084.89 203.389 1086 203.389H1302C1303.1 203.389 1304 204.284 1304 205.389V255.389ZM1238 310.389C1251.8 310.389 1263 321.581 1263 335.389C1263 349.196 1251.8 360.389 1238 360.389H1205C1191.19 360.389 1180 349.196 1180 335.389C1180 321.581 1191.19 310.389 1205 310.389H1238Z" fill="currentColor"></path>
<path d="M2116 237.389C2116 238.493 2115.1 239.389 2114 239.389H2057.63C2056.53 239.389 2055.63 240.284 2055.63 241.389V297.389C2055.63 298.493 2056.53 299.389 2057.63 299.389H2114C2115.1 299.389 2116 300.284 2116 301.389V317.389C2116 318.493 2115.1 319.389 2114 319.389H2038C2036.89 319.389 2036 318.493 2036 317.389V221.389C2036 220.284 2036.89 219.389 2038 219.389H2114C2115.1 219.389 2116 220.284 2116 221.389V237.389ZM2091.82 259.019C2096.94 259.02 2101.08 263.166 2101.08 268.279C2101.08 273.393 2096.94 277.538 2091.82 277.538H2080.16C2075.05 277.538 2070.9 273.393 2070.9 268.279C2070.9 263.166 2075.05 259.02 2080.16 259.019H2091.82Z" fill="currentColor"></path>
<path fill-rule="evenodd" clip-rule="evenodd" d="M1420.1 471.504C1419.72 471.966 1419.15 472.233 1418.55 472.233H1354.91C1353.22 472.233 1352.29 470.266 1353.36 468.962L1456.08 344.293C1456.69 343.554 1456.69 342.487 1456.08 341.749L1344.37 206.273C1343.29 204.969 1344.22 203.001 1345.91 203.001H1409.55C1410.15 203.001 1410.72 203.268 1411.1 203.728L1490.01 299.369C1490.81 300.339 1492.3 300.339 1493.09 299.368L1571.9 203.728C1572.28 203.267 1572.84 203 1573.44 203H1636.76C1638.45 203 1639.38 204.966 1638.31 206.271L1420.1 471.504ZM1629.32 468.621C1630.39 469.927 1629.46 471.888 1627.77 471.888L1561.94 471.889C1561.34 471.889 1560.78 471.623 1560.4 471.165L1518.55 420.722C1517.94 419.982 1517.94 418.91 1518.55 418.17L1551.95 377.819C1552.75 376.849 1554.24 376.853 1555.04 377.827L1629.32 468.621Z" fill="currentColor"></path>
<path d="M1855 203.389C1882.61 203.389 1905 225.774 1905 253.389V422.389L1904.99 423.035C1904.65 450.136 1882.74 472.041 1855.64 472.385L1855 472.389H1729L1728.35 472.385C1701.03 472.039 1679 449.787 1679 422.389V420.389C1679 419.284 1679.89 418.389 1681 418.389H1849C1850.1 418.389 1851 417.493 1851 416.389V259.389C1851 258.284 1850.1 257.389 1849 257.389H1735C1733.89 257.389 1733 258.284 1733 259.389V362.389C1733 363.493 1732.1 364.389 1731 364.389H1681C1679.89 364.389 1679 363.493 1679 362.389V253.389C1679 225.774 1701.38 203.389 1729 203.389H1855Z" fill="currentColor"></path>
<path fill-rule="evenodd" clip-rule="evenodd" d="M2162 317.389C2162 318.493 2161.1 319.389 2160 319.389H2144C2142.89 319.389 2142 318.493 2142 317.389V221.389C2142 220.284 2142.89 219.389 2144 219.389H2160C2161.1 219.389 2162 220.284 2162 221.389V317.389ZM2219.35 316.111C2220.43 317.415 2219.51 319.388 2217.81 319.388H2196.63C2196.02 319.389 2195.44 319.11 2195.07 318.633L2184.01 304.725C2183.42 303.981 2183.44 302.923 2184.05 302.195L2194.46 289.784C2195.26 288.827 2196.73 288.831 2197.53 289.792L2219.35 316.111ZM2232.27 219.387C2233.96 219.387 2234.89 221.351 2233.82 222.656L2178.14 290.508C2176.94 291.973 2174.56 291.101 2174.59 289.206L2174.99 265.645C2174.99 265.192 2175.15 264.755 2175.44 264.405L2211.98 220.114C2212.36 219.653 2212.92 219.387 2213.52 219.387H2232.27Z" fill="currentColor"></path>
<path d="M2012 237.389C2012 238.493 2011.1 239.389 2010 239.389H1986C1984.89 239.389 1984 240.284 1984 241.389V317.389C1984 318.493 1983.1 319.389 1982 319.389H1966C1964.89 319.389 1964 318.493 1964 317.389V241.389C1964 240.284 1963.1 239.389 1962 239.389H1937C1935.89 239.389 1935 238.493 1935 237.389V221.389C1935 220.284 1935.89 219.389 1937 219.389H2010C2011.1 219.389 2012 220.284 2012 221.389V237.389Z" fill="currentColor"></path>
<path d="M580 13H95C49.7127 13 13 49.7127 13 95V580C13 625.287 49.7127 662 95 662H580C625.287 662 662 625.287 662 580V95C662 49.7127 625.287 13 580 13Z" stroke="currentColor" stroke-width="26"></path>
<path d="M347.25 158.85C347.455 158.903 347.661 158.956 347.872 159.01C351.517 160.049 355.542 162.784 357.9 165.71C358.43 166.3 359.084 166.674 359.75 167.099C360.172 167.511 360.589 167.927 361 168.349C361.614 168.855 362.238 169.34 362.875 169.818C363.459 170.314 363.908 170.837 364.383 171.436C364.976 172.103 365.667 172.654 366.356 173.22C366.486 173.345 366.616 173.47 366.75 173.598C366.75 173.763 366.75 173.928 366.75 174.098C366.93 174.16 367.111 174.222 367.297 174.286C368.222 174.697 369.043 175.156 369.484 176.098C369.806 176.703 370.204 176.899 370.775 177.251C371.65 177.89 372.369 178.699 373.125 179.471C373.791 180.139 374.485 180.757 375.201 181.37C376.031 182.092 376.835 182.84 377.643 183.585C378.346 184.232 379.056 184.867 379.781 185.488C380.544 186.146 381.249 186.846 381.953 187.566C383.222 188.85 384.593 189.968 386 191.097C386.388 191.417 386.773 191.739 387.156 192.065C387.393 192.265 387.393 192.265 387.635 192.47C388 192.847 388 192.847 388.25 193.596C388.594 193.827 388.938 194.055 389.289 194.275C390.251 194.945 391.075 195.789 391.922 196.596C392.112 196.774 392.301 196.952 392.497 197.135C393.904 198.467 393.904 198.467 394.399 199.134C394.732 199.633 394.732 199.633 395.31 199.921C396.286 200.522 397.005 201.32 397.797 202.142C399.051 203.425 400.317 204.598 401.747 205.685C402.218 206.069 402.578 206.448 402.953 206.923C403.45 207.613 403.45 207.613 404.109 207.954C404.717 208.325 404.973 208.584 405.406 209.126C406.255 210.165 407.269 210.946 408.315 211.779C409.106 212.432 409.815 213.137 410.528 213.872C410.991 214.336 411.471 214.762 411.969 215.188C412.767 215.873 413.511 216.596 414.25 217.344C415.525 218.631 416.856 219.81 418.25 220.966C420.102 222.506 421.821 224.116 423.5 225.843C424.208 226.562 424.918 227.254 425.688 227.905C426.437 228.553 427.137 229.227 427.828 229.937C428.65 230.773 429.505 231.518 430.422 232.249C431.358 232.996 432.124 233.737 432.867 234.67C433.493 235.36 434.247 235.879 434.991 236.435C435.597 236.919 436.023 237.484 436.5 238.092C436.835 238.308 436.835 238.308 437.176 238.527C438.111 239.168 438.854 239.89 439.641 240.701C439.778 240.841 439.916 240.981 440.058 241.125C440.329 241.401 440.6 241.677 440.87 241.953C441.68 242.781 442.483 243.601 443.375 244.341C444.123 244.973 444.807 245.649 445.5 246.341C445.804 246.609 446.109 246.875 446.416 247.14C447.463 248.052 448.476 248.996 449.484 249.95C450.745 251.138 452.015 252.31 453.316 253.453C453.901 253.975 454.445 254.536 455 255.09C456.177 256.171 457.371 257.231 458.578 258.277C459.335 258.936 460.041 259.63 460.75 260.34C461.04 260.586 461.332 260.831 461.625 261.074C462.297 261.639 462.825 262.235 463.367 262.927C464.073 263.687 464.921 264.284 465.747 264.906C465.996 265.12 465.996 265.12 466.25 265.339C466.25 265.504 466.25 265.669 466.25 265.839C466.42 265.88 466.59 265.922 466.766 265.964C467.504 266.341 467.766 266.605 468.281 267.23C469.178 268.307 470.192 269.14 471.284 270.013C472.004 270.592 472.71 271.184 473.406 271.792C473.611 271.969 473.815 272.145 474.025 272.328C474.5 272.838 474.5 272.838 474.615 273.373C474.66 273.526 474.704 273.68 474.75 273.838C474.929 273.91 475.108 273.981 475.292 274.054C476.282 274.452 476.852 275.12 477.578 275.885C477.868 276.183 478.158 276.48 478.449 276.776C478.588 276.918 478.727 277.06 478.87 277.206C479.462 277.801 480.091 278.345 480.729 278.89C482.622 280.519 484.418 282.243 486.174 284.018C487.17 285.002 488.229 285.908 489.31 286.798C489.491 286.95 489.672 287.102 489.859 287.259C490.024 287.394 490.189 287.529 490.358 287.668C490.802 288.143 490.862 288.465 491 289.087C491.175 289.154 491.351 289.221 491.531 289.29C492.414 289.655 492.85 290.161 493.501 290.844C494.024 291.36 494.573 291.796 495.156 292.243C496.399 293.213 497.493 294.293 498.589 295.422C499.435 296.29 500.311 297.07 501.25 297.836C501.672 298.247 502.088 298.664 502.5 299.086C502.786 299.364 502.786 299.364 503.078 299.647C503.284 299.849 503.491 300.05 503.703 300.258C503.901 300.449 504.098 300.641 504.302 300.839C504.75 301.336 504.75 301.336 504.75 301.835C504.92 301.887 505.09 301.939 505.266 301.992C506.475 302.558 507.375 303.459 508.311 304.399C509.157 305.242 510.03 306.054 510.906 306.866C511.238 307.174 511.569 307.482 511.9 307.79C512.046 307.925 512.191 308.059 512.34 308.198C512.476 308.326 512.611 308.453 512.75 308.585C512.891 308.715 513.033 308.844 513.178 308.978C513.5 309.335 513.5 309.335 513.5 309.835C513.67 309.876 513.84 309.917 514.016 309.96C514.76 310.34 515.016 310.608 515.531 311.241C516.426 312.324 517.45 313.064 518.612 313.845C519.287 314.363 519.734 314.912 520.25 315.584C520.518 315.838 520.794 316.083 521.078 316.318C522.125 317.213 523.134 318.144 524.141 319.084C524.297 319.229 524.453 319.374 524.614 319.524C525.397 320.256 526.166 320.997 526.918 321.76C527.552 322.399 528.203 322.962 528.922 323.505C530.652 324.891 532.179 326.479 533.73 328.059C534.782 329.128 535.829 330.146 537 331.083C537.592 331.658 538.168 332.247 538.74 332.841C539.919 334.047 541.131 335.117 542.483 336.126C543.012 336.592 543.208 336.954 543.5 337.582C543.84 337.803 544.18 338.022 544.525 338.235C545.4 338.874 546.12 339.684 546.876 340.456C547.537 341.118 548.225 341.729 548.934 342.338C552.422 345.375 555.307 348.461 557.5 352.58C557.583 351.838 557.665 351.096 557.75 350.331C557.833 350.331 557.915 350.331 558 350.331C558 366.994 558 383.657 558 400.825C557.917 400.825 557.835 400.825 557.75 400.825C557.667 399.671 557.585 398.516 557.5 397.326C557.299 397.604 557.098 397.883 556.891 398.169C554.698 401.079 552.522 402.946 549.312 404.627C548.345 405.161 547.462 405.771 546.568 406.419C545.885 406.907 545.178 407.344 544.462 407.781C544.019 408.063 543.606 408.367 543.188 408.684C542.431 409.237 541.641 409.637 540.797 410.043C539.547 410.65 538.444 411.348 537.32 412.162C535.979 413.132 534.552 413.937 533.109 414.746C531.619 415.584 530.196 416.501 528.788 417.47C527.887 418.087 526.98 418.588 526 419.074C525.604 419.341 525.213 419.618 524.828 419.902C523.732 420.685 522.603 421.327 521.414 421.957C520.596 422.408 519.833 422.92 519.062 423.447C518.26 423.984 517.431 424.472 516.602 424.965C515.35 425.71 514.125 426.486 512.922 427.307C511.86 428.022 510.753 428.626 509.625 429.23C508.885 429.636 508.195 430.094 507.5 430.572C507.168 430.788 506.835 431.001 506.5 431.213C506.345 431.311 506.191 431.41 506.031 431.511C505.5 431.822 505.5 431.822 504.806 432.162C503.87 432.638 502.995 433.182 502.109 433.744C501.753 433.968 501.397 434.193 501.04 434.417C500.864 434.528 500.688 434.639 500.507 434.753C498.719 435.878 496.923 436.98 495.078 438.009C493.234 439.052 491.486 440.224 489.733 441.412C488.5 442.245 487.229 442.975 485.918 443.678C485.27 444.046 485.27 444.046 484.767 444.414C483.363 445.406 482.012 446.001 480.375 446.508C480.154 446.581 479.932 446.653 479.704 446.728C477.046 447.583 474.43 448.103 471.633 448.13C471.433 448.132 471.234 448.134 471.028 448.136C470.607 448.14 470.186 448.143 469.765 448.144C469.342 448.147 468.919 448.152 468.496 448.16C465.647 448.21 463.213 447.976 460.5 447.071C460.177 446.966 460.177 446.966 459.847 446.86C459.321 446.684 458.801 446.498 458.281 446.305C457.921 446.175 457.561 446.045 457.2 445.915C457.034 445.854 456.869 445.794 456.698 445.732C455.992 445.478 455.281 445.246 454.567 445.015C454.12 444.862 453.678 444.696 453.237 444.525C450.166 443.353 446.485 442.12 443.25 443.321C442.4 443.853 441.703 444.416 441.25 445.321C441.214 445.697 441.193 446.075 441.18 446.453C441.171 446.702 441.161 446.95 441.152 447.207C441.143 447.487 441.134 447.767 441.125 448.055C441.115 448.351 441.104 448.646 441.094 448.95C441.023 451.145 440.981 453.339 440.946 455.534C440.939 455.957 440.939 455.957 440.932 456.388C440.909 457.815 440.887 459.243 440.87 460.67C440.862 461.207 440.853 461.745 440.845 462.282C440.843 462.526 440.841 462.77 440.838 463.021C440.798 465.288 440.575 467.293 439.312 469.225C439.133 469.5 438.953 469.776 438.768 470.06C438.597 470.31 438.426 470.56 438.25 470.818C438.126 471.004 438.001 471.19 437.873 471.382C436.369 473.509 434.6 475.259 432.265 476.428C431.349 476.895 430.473 477.412 429.594 477.943C429.352 478.088 429.352 478.088 429.105 478.237C428.059 478.87 427.036 479.531 426.025 480.22C425.45 480.601 424.861 480.952 424.266 481.302C423.434 481.794 422.642 482.313 421.859 482.88C420.555 483.81 419.183 484.605 417.798 485.408C416.65 486.075 415.538 486.776 414.441 487.527C413.823 487.933 413.164 488.241 412.5 488.567C411.056 489.392 409.66 490.281 408.282 491.211C407.643 491.638 406.992 492.043 406.338 492.447C405.721 492.834 405.112 493.232 404.502 493.629C403.073 494.559 401.634 495.419 400.127 496.218C399.333 496.659 398.593 497.161 397.845 497.674C396.915 498.286 395.947 498.827 394.982 499.382C394.126 499.889 393.307 500.44 392.485 501C392 501.315 392 501.315 391.266 501.675C390.307 502.164 389.473 502.781 388.599 503.406C387.928 503.864 387.229 504.209 386.5 504.565C386.311 504.721 386.121 504.878 385.926 505.039C385.231 505.58 384.56 505.938 383.766 506.315C382.545 506.91 381.423 507.537 380.352 508.377C379.344 509.146 378.434 509.55 377.205 509.871C377.055 509.935 376.905 509.999 376.75 510.064C376.667 510.312 376.585 510.559 376.5 510.814C376.017 511.163 376.017 511.163 375.391 511.517C375.164 511.648 374.937 511.778 374.703 511.912C374.471 512.045 374.239 512.177 374 512.314C373.588 512.569 373.177 512.824 372.766 513.08C370.826 514.238 368.884 515.077 366.692 515.625C365.737 515.886 364.823 516.237 363.901 516.597C363.25 516.814 363.25 516.814 361.75 517.064C363.07 517.146 364.39 517.229 365.75 517.314C365.75 517.396 365.75 517.479 365.75 517.564C348.739 519.11 336.619 516.643 321.627 508.604C319.127 507.265 316.597 505.985 314.066 504.706C309.55 502.422 305.056 500.097 300.577 497.743C296.255 495.472 291.923 493.222 287.577 490.998C287.172 490.79 287.172 490.79 286.759 490.579C285.404 489.886 284.049 489.193 282.693 488.5C280.052 487.15 277.412 485.798 274.773 484.445C274.518 484.314 274.263 484.183 274 484.048C270.26 482.13 266.526 480.199 262.798 478.257C262.564 478.135 262.33 478.013 262.089 477.888C259.888 476.741 257.687 475.593 255.487 474.442C250.331 471.742 250.331 471.742 245.101 469.19C242.635 468.026 240.197 466.806 237.758 465.588C237.407 465.413 237.407 465.413 237.05 465.234C235.534 464.477 234.019 463.719 232.503 462.96C231.117 462.267 229.73 461.574 228.343 460.88C225.946 459.682 223.549 458.483 221.152 457.284C218.639 456.027 216.125 454.77 213.611 453.513C213.454 453.434 213.297 453.356 213.135 453.275C212.338 452.876 211.54 452.477 210.742 452.078C205.104 449.259 199.467 446.44 193.83 443.621C188.367 440.888 182.905 438.156 177.442 435.425C177.274 435.341 177.105 435.256 176.932 435.17C175.239 434.323 173.547 433.477 171.855 432.631C168.399 430.903 164.942 429.174 161.485 427.446C161.326 427.366 161.167 427.287 161.003 427.204C152.808 423.107 144.613 419.008 136.418 414.91C136.17 414.785 135.921 414.661 135.665 414.533C134.518 413.959 133.37 413.385 132.223 412.811C131.917 412.659 131.917 412.659 131.606 412.503C131.212 412.306 130.819 412.109 130.426 411.912C129.492 411.444 128.557 410.979 127.618 410.52C127.437 410.431 127.256 410.342 127.07 410.25C126.734 410.085 126.397 409.92 126.06 409.757C122.387 407.947 119.702 404.628 118.25 400.825C117.587 398.686 117.394 396.711 117.415 394.479C117.415 394.159 117.415 393.84 117.415 393.51C117.414 392.643 117.419 391.776 117.424 390.909C117.429 389.999 117.429 389.09 117.43 388.18C117.432 386.461 117.438 384.743 117.446 383.025C117.454 381.067 117.458 379.109 117.462 377.151C117.47 373.127 117.483 369.103 117.5 365.079C117.335 365.079 117.17 365.079 117 365.079C117 338.682 117 312.284 117 285.087C117.083 285.087 117.165 285.087 117.25 285.087C117.333 285.747 117.415 286.407 117.5 287.087C117.546 286.932 117.592 286.777 117.64 286.617C118.594 283.705 120.036 280.96 122.5 279.088C122.612 278.891 122.724 278.693 122.839 278.49C123.33 277.711 123.854 277.329 124.609 276.807C124.846 276.641 125.083 276.476 125.327 276.305C125.549 276.151 125.771 275.997 126 275.838C126.175 275.701 126.35 275.564 126.53 275.423C127.12 275.003 127.754 274.814 128.432 274.574C129.524 274.121 130.503 273.467 131.5 272.838C131.664 272.738 131.829 272.637 131.998 272.534C133.002 271.917 133.978 271.266 134.953 270.604C136.159 269.793 137.388 269.082 138.681 268.42C139.229 268.101 139.558 267.786 140 267.339C142.088 265.882 144.297 264.613 146.504 263.347C148.191 262.378 149.85 261.371 151.5 260.34C151.788 260.163 151.788 260.163 152.081 259.983C153.027 259.402 153.932 258.791 154.815 258.118C155.25 257.84 155.25 257.84 155.83 257.621C156.662 257.272 157.317 256.791 158.047 256.262C159.232 255.416 160.41 254.706 161.744 254.108C162.271 253.829 162.59 253.518 163 253.09C163.5 252.84 164 252.59 164.5 252.34C165.518 251.695 166.507 251.008 167.5 250.325C168.107 249.933 168.709 249.588 169.344 249.247C170.104 248.833 170.788 248.391 171.469 247.857C172.442 247.1 173.48 246.541 174.568 245.966C175.394 245.512 176.162 244.998 176.938 244.466C177.531 244.07 178.136 243.704 178.75 243.341C179.745 242.751 180.709 242.127 181.669 241.48C184.604 239.517 187.648 237.72 190.703 235.952C190.988 235.786 191.274 235.621 191.567 235.451C192.25 235.092 192.25 235.092 192.75 235.092C192.796 234.947 192.843 234.802 192.891 234.652C193.41 233.843 194.161 233.547 195 233.139C196.138 232.562 197.209 231.984 198.234 231.218C204.158 226.925 211.98 225.955 219.094 226.89C219.343 226.922 219.592 226.955 219.848 226.988C221.602 227.237 223.147 227.646 224.793 228.31C225.42 228.561 226.014 228.741 226.672 228.89C227.5 229.093 227.5 229.093 228.25 229.593C228.952 229.798 229.652 229.989 230.359 230.171C231.745 230.537 233.05 230.936 234.359 231.53C236.439 232.442 238.353 232.57 240.5 231.843C241.004 231.6 241.505 231.352 242 231.093C242.165 231.093 242.33 231.093 242.5 231.093C242.572 230.946 242.643 230.799 242.717 230.648C242.888 230.312 243.068 229.98 243.263 229.657C244.098 228.209 244.147 226.922 244.144 225.276C244.147 225.007 244.151 224.738 244.154 224.461C244.165 223.604 244.169 222.747 244.172 221.89C244.182 220.769 244.194 219.648 244.206 218.527C244.209 218.255 244.211 217.983 244.214 217.702C244.233 216.017 244.275 214.335 244.358 212.652C244.367 212.463 244.376 212.274 244.385 212.079C244.585 208.487 246.561 205.429 248.974 202.837C249.384 202.476 249.8 202.157 250.25 201.846C250.419 201.724 250.587 201.603 250.761 201.478C251.98 200.633 253.255 199.92 254.562 199.22C256.365 198.24 258.091 197.134 259.818 196.027C260.467 195.617 261.122 195.222 261.781 194.831C263.164 194.007 264.495 193.116 265.82 192.204C266.862 191.494 267.892 190.886 269.028 190.344C269.499 190.097 269.903 189.821 270.328 189.503C271.273 188.8 272.291 188.267 273.327 187.713C274.452 187.101 275.522 186.409 276.594 185.71C278.139 184.709 279.714 183.79 281.335 182.919C282.129 182.484 282.846 182.044 283.533 181.453C284.213 180.879 284.854 180.476 285.641 180.067C286.528 179.601 287.394 179.12 288.25 178.598C288.554 178.417 288.554 178.417 288.864 178.232C289.555 177.815 290.24 177.388 290.922 176.957C291.16 176.808 291.398 176.658 291.644 176.503C292.262 176.119 292.262 176.119 292.75 175.598C293.034 175.505 293.317 175.413 293.609 175.317C294.816 174.886 295.721 174.161 296.735 173.393C297.691 172.712 298.69 172.151 299.716 171.584C300.856 170.947 301.903 170.226 302.96 169.461C303.679 168.979 304.456 168.689 305.25 168.349C305.635 168.091 306.015 167.824 306.391 167.552C307.387 166.833 308.413 166.199 309.484 165.599C311.206 164.634 312.937 163.655 314.513 162.461C315.178 161.967 315.887 161.591 316.615 161.197C317.043 160.963 317.466 160.721 317.885 160.471C319.686 159.419 321.478 158.842 323.5 158.35C323.904 158.246 323.904 158.246 324.316 158.14C331.843 156.348 339.844 156.732 347.25 158.85ZM334.75 181.598C334.402 181.786 334.053 181.974 333.703 182.16C332.538 182.806 331.424 183.528 330.308 184.254C329.445 184.815 328.575 185.357 327.688 185.878C326.849 186.373 326.056 186.904 325.266 187.472C324.177 188.249 323.047 188.886 321.867 189.513C320.832 190.073 319.896 190.738 318.953 191.44C317.999 192.129 316.977 192.669 315.937 193.215C315.177 193.637 314.472 194.112 313.75 194.596C312.905 195.128 312.054 195.651 311.203 196.174C309.784 197.049 308.368 197.925 306.969 198.83C305.886 199.527 304.77 200.139 303.627 200.731C302.993 201.077 302.993 201.077 302.46 201.539C301.193 202.532 299.776 203.31 298.393 204.129C297.227 204.835 296.256 205.424 295.5 206.595C297.137 208.721 298.908 210.49 300.952 212.229C302.275 213.367 303.499 214.582 304.719 215.829C305.118 216.233 305.519 216.636 305.92 217.038C306.097 217.217 306.274 217.395 306.457 217.579C307.03 218.122 307.628 218.608 308.25 219.094C309.077 219.74 309.841 220.404 310.58 221.149C310.777 221.347 310.975 221.545 311.178 221.748C311.57 222.145 311.961 222.543 312.352 222.942C313.37 223.979 314.407 224.969 315.51 225.917C316.358 226.654 317.169 227.43 317.984 228.202C318.358 228.555 318.731 228.907 319.104 229.26C319.294 229.439 319.483 229.618 319.678 229.802C320.597 230.671 321.517 231.538 322.438 232.405C322.615 232.572 322.793 232.74 322.976 232.912C324.148 234.015 325.327 235.109 326.511 236.197C327.831 237.412 329.134 238.643 330.438 239.874C331.503 240.877 332.574 241.872 333.656 242.857C334.578 243.697 335.472 244.554 336.346 245.445C336.767 245.858 337.206 246.24 337.656 246.622C338.61 247.442 339.491 248.322 340.375 249.216C341.543 250.395 342.735 251.516 344 252.59C345.797 254.141 347.471 255.792 349.124 257.495C350.068 258.455 351.034 259.335 352.087 260.176C353.839 261.584 355.373 263.187 356.938 264.796C358.04 265.918 359.145 266.982 360.375 267.964C362.118 269.355 363.635 270.949 365.188 272.545C366.51 273.89 367.867 275.114 369.34 276.291C370.395 277.166 371.343 278.137 372.297 279.119C373.522 280.373 374.751 281.589 376.091 282.72C376.5 283.087 376.5 283.087 377 283.728C377.455 284.283 377.83 284.598 378.406 285.009C379.514 285.808 380.433 286.747 381.386 287.722C382.071 288.408 382.787 289.044 383.528 289.67C384.128 290.2 384.684 290.77 385.25 291.337C385.834 291.893 386.425 292.443 387.016 292.993C387.18 293.146 387.344 293.298 387.513 293.456C388.545 294.417 389.583 295.371 390.625 296.32C391.546 297.161 392.441 298.017 393.313 298.907C393.751 299.337 394.204 299.738 394.669 300.138C395.757 301.085 396.811 302.064 397.859 303.054C398.046 303.23 398.232 303.405 398.424 303.586C399.56 304.659 400.673 305.75 401.771 306.862C402.766 307.844 403.826 308.749 404.922 309.616C405.752 310.289 406.48 311.06 407.228 311.821C409.799 314.498 409.799 314.498 412.594 316.928C414.263 318.225 415.708 319.76 417.186 321.267C418.414 322.514 419.67 323.695 421 324.833C422.606 326.262 424.172 327.722 425.668 329.266C426.33 329.91 427.022 330.511 427.719 331.116C428.569 331.863 429.394 332.636 430.219 333.41C430.393 333.573 430.566 333.737 430.746 333.905C431.923 335.013 433.07 336.144 434.205 337.296C434.886 337.966 435.605 338.582 436.332 339.201C436.75 339.582 436.75 339.582 437.281 340.253C437.732 340.87 437.732 340.87 438.438 341.277C439.311 341.873 439.991 342.526 440.719 343.284C441.714 344.303 442.719 345.276 443.82 346.182C444.25 346.581 444.25 346.581 444.731 347.195C445.251 347.832 445.767 348.275 446.422 348.768C447.537 349.637 448.523 350.577 449.509 351.588C450.055 352.136 450.64 352.606 451.25 353.08C451.672 353.491 452.088 353.909 452.5 354.33C453.628 355.482 454.77 356.595 455.994 357.644C456.351 357.951 456.703 358.263 457.053 358.578C457.231 358.738 457.41 358.899 457.594 359.064C457.756 359.211 457.917 359.357 458.084 359.508C458.478 359.881 458.478 359.881 459 359.83C459.041 360 459.082 360.17 459.125 360.345C459.573 361.223 460.095 361.648 460.845 362.273C461.685 362.986 462.49 363.734 463.297 364.485C463.445 364.623 463.594 364.761 463.747 364.902C464.387 365.497 465.017 366.096 465.635 366.715C466.337 367.415 467.064 368.083 467.797 368.751C468.818 369.685 469.814 370.634 470.781 371.625C471.567 372.423 472.369 373.138 473.25 373.828C474.822 375.079 476.21 376.504 477.614 377.938C478.642 378.985 479.688 379.985 480.802 380.941C481.598 381.628 482.36 382.354 483.127 383.073C484.064 383.831 484.861 384.32 486.078 384.343C487.324 383.984 488.202 383.322 489.25 382.577C490.759 381.592 492.29 380.647 493.838 379.724C495.896 378.492 497.928 377.22 499.942 375.917C500.912 375.291 501.89 374.681 502.875 374.078C504.055 373.356 505.226 372.622 506.391 371.875C506.537 371.782 506.683 371.689 506.833 371.593C507.421 371.214 507.996 370.832 508.552 370.408C509 370.079 509 370.079 509.781 369.766C510.829 369.339 511.687 368.692 512.602 368.034C513.403 367.471 514.233 366.974 515.076 366.477C517.124 365.267 519.139 364 521.141 362.715C522.013 362.163 522.901 361.638 523.789 361.113C524.065 360.947 524.341 360.781 524.625 360.611C524.901 360.446 525.177 360.282 525.461 360.113C526.267 359.568 526.902 359.1 527.5 358.33C527.528 357.388 527.388 356.987 526.767 356.279C526.56 356.11 526.353 355.941 526.141 355.768C525.208 354.977 524.325 354.172 523.469 353.299C522.737 352.557 521.998 351.848 521.203 351.174C520.349 350.447 519.638 349.653 518.935 348.78C518.51 348.301 518.51 348.301 517.906 347.979C517.119 347.501 516.561 346.931 515.922 346.268C514.967 345.289 513.994 344.36 512.938 343.489C512.5 343.081 512.5 343.081 512.025 342.474C511.471 341.796 510.894 341.307 510.203 340.769C509.066 339.859 508.039 338.897 507.022 337.856C506.561 337.393 506.09 336.961 505.594 336.535C504.424 335.531 503.305 334.473 502.181 333.419C500.996 332.309 499.799 331.214 498.592 330.129C497.721 329.325 496.895 328.482 496.068 327.634C494.865 326.404 493.663 325.232 492.312 324.161C491.24 323.311 490.359 322.404 489.474 321.364C488.865 320.682 488.194 320.107 487.497 319.518C486.987 319.072 486.518 318.602 486.047 318.115C485.334 317.39 484.598 316.755 483.797 316.131C482.152 314.816 480.698 313.316 479.225 311.813C478.027 310.595 476.797 309.447 475.5 308.335C473.874 306.888 472.3 305.399 470.771 303.849C470.115 303.202 469.424 302.605 468.725 302.005C468.102 301.455 467.526 300.865 466.944 300.272C466.484 299.819 466.005 299.397 465.516 298.976C464.633 298.216 463.816 297.408 463 296.577C462.517 296.103 462.017 295.664 461.5 295.227C460.571 294.433 459.792 293.555 459.014 292.615C458.508 292.057 458.508 292.057 457.82 291.639C456.745 290.915 455.843 290.057 454.906 289.165C454.717 288.986 454.528 288.808 454.333 288.624C453.215 287.559 452.169 286.464 451.169 285.287C450.602 284.678 449.961 284.23 449.283 283.751C448.399 283.065 447.645 282.252 446.864 281.453C446.179 280.766 445.463 280.13 444.722 279.505C444.122 278.974 443.566 278.405 443 277.838C442.479 277.343 441.951 276.856 441.422 276.369C441.279 276.238 441.136 276.106 440.989 275.97C440.072 275.127 439.144 274.296 438.195 273.488C437.365 272.743 436.596 271.937 435.818 271.139C434.402 269.692 432.955 268.372 431.365 267.11C430.64 266.496 430.048 265.824 429.445 265.092C429.015 264.607 428.573 264.196 428.079 263.777C426.991 262.839 425.948 261.86 424.906 260.871C423.763 259.788 422.618 258.711 421.438 257.668C420.302 256.658 419.238 255.585 418.169 254.505C417.314 253.645 416.442 252.824 415.519 252.037C413.619 250.402 411.816 248.673 410.054 246.891C409.247 246.079 408.419 245.311 407.549 244.568C405.772 243.025 404.047 241.416 402.401 239.734C401.952 239.294 401.48 238.89 401 238.483C400.308 237.889 399.71 237.276 399.125 236.576C398.407 235.728 397.645 235.108 396.742 234.465C396.079 233.963 395.521 233.384 394.944 232.787C394.487 232.33 394.009 231.916 393.516 231.499C392.774 230.863 392.135 230.194 391.5 229.452C390.743 228.578 389.978 227.923 389.036 227.26C388.144 226.567 387.381 225.747 386.599 224.935C386.015 224.335 386.015 224.335 385.362 223.845C384.717 223.316 384.27 222.743 383.75 222.094C383.327 221.728 382.894 221.375 382.453 221.031C381.304 220.112 380.261 219.142 379.243 218.08C378.385 217.167 378.385 217.167 377.25 216.844C377.169 216.575 377.169 216.575 377.086 216.301C376.672 215.431 376.09 214.901 375.375 214.282C375.242 214.163 375.109 214.045 374.972 213.922C374.698 213.679 374.424 213.437 374.149 213.195C373.559 212.677 372.975 212.151 372.391 211.626C372.2 211.456 372.01 211.287 371.813 211.112C371.191 210.54 370.598 209.943 370 209.345C369.395 208.767 368.784 208.196 368.172 207.626C368.004 207.47 367.837 207.313 367.664 207.152C366.856 206.4 366.044 205.656 365.203 204.939C364.201 204.079 363.285 203.137 362.357 202.198C361.508 201.343 360.633 200.537 359.715 199.756C359.047 199.167 358.43 198.533 357.812 197.893C357.326 197.42 356.829 196.974 356.317 196.53C355.245 195.598 354.205 194.634 353.172 193.659C352.894 193.398 352.894 193.398 352.611 193.131C351.329 191.919 350.078 190.681 348.836 189.426C348.166 188.764 347.471 188.143 346.756 187.531C345.328 186.307 343.939 185.053 342.625 183.707C340.538 181.475 340.538 181.475 337.859 180.254C336.632 180.388 335.793 180.968 334.75 181.598ZM199.53 265.826C198.597 266.44 197.631 266.959 196.646 267.483C195.838 267.928 195.083 268.431 194.321 268.951C191.526 270.848 188.625 272.63 185.719 274.354C184.559 275.043 183.427 275.775 182.294 276.508C181.245 277.186 180.182 277.836 179.106 278.473C178.202 279.017 177.317 279.59 176.429 280.159C175.797 280.558 175.159 280.942 174.516 281.322C173.576 281.879 172.67 282.474 171.766 283.087C170.571 283.895 169.352 284.599 168.069 285.256C167.526 285.572 167.184 285.892 166.75 286.337C166.434 286.531 166.11 286.712 165.781 286.884C164.761 287.44 163.75 288.01 162.75 288.602C162.472 288.765 162.193 288.928 161.906 289.096C161.232 289.52 161.232 289.52 161.008 290.103C160.994 290.934 161.477 291.488 162 292.086C162.434 292.483 162.881 292.857 163.337 293.229C163.75 293.586 163.75 293.586 164.234 294.196C164.807 294.907 165.436 295.453 166.129 296.045C167.051 296.848 167.943 297.685 168.836 298.52C169.437 299.079 170.036 299.614 170.68 300.125C171.182 300.53 171.556 300.911 171.953 301.414C172.646 302.246 173.408 302.931 174.232 303.63C174.765 304.099 175.256 304.592 175.75 305.101C176.549 305.916 177.392 306.579 178.316 307.245C178.897 307.7 179.297 308.254 179.75 308.835C180.05 309.109 180.356 309.377 180.665 309.641C181.67 310.51 182.643 311.407 183.609 312.319C183.864 312.558 183.864 312.558 184.123 312.802C184.482 313.14 184.84 313.477 185.198 313.815C185.756 314.34 186.315 314.864 186.875 315.388C188.534 316.942 190.181 318.501 191.778 320.119C192.389 320.721 193.033 321.278 193.683 321.838C195.853 323.732 197.911 325.73 199.938 327.775C201.003 328.846 202.097 329.857 203.25 330.833C204.754 332.16 206.231 333.517 207.703 334.879C207.862 335.025 208.02 335.17 208.184 335.32C208.883 335.969 209.513 336.598 210.112 337.345C210.638 337.952 211.052 338.329 211.69 338.788C212.907 339.664 213.913 340.71 214.953 341.785C216.705 343.571 216.705 343.571 218.609 345.19C220.213 346.438 221.605 347.903 223.025 349.353C224.09 350.436 225.171 351.472 226.324 352.461C226.824 352.895 227.29 353.354 227.75 353.83C228.39 354.48 229.042 355.096 229.734 355.689C230.482 356.332 231.183 357.003 231.875 357.705C232.702 358.541 233.551 359.328 234.442 360.094C236.188 361.614 237.881 363.189 239.503 364.84C239.969 365.298 240.447 365.728 240.941 366.153C241.942 367.022 242.912 367.919 243.875 368.829C244.223 369.156 244.571 369.484 244.919 369.811C245.096 369.978 245.273 370.145 245.456 370.317C246.004 370.833 246.554 371.347 247.104 371.862C247.283 372.029 247.462 372.196 247.646 372.368C247.988 372.688 248.329 373.006 248.671 373.325C249.709 374.297 250.726 375.284 251.713 376.308C252.601 377.224 253.516 378.055 254.519 378.845C256.048 380.087 257.421 381.451 258.797 382.859C260.317 384.409 261.842 385.924 263.5 387.327C264.936 388.582 266.315 389.878 267.656 391.233C268.637 392.223 269.625 393.18 270.687 394.084C273.077 396.172 275.351 398.403 277.661 400.58C278.697 401.557 279.737 402.53 280.781 403.499C282.065 404.693 283.333 405.893 284.561 407.144C285.028 407.603 285.517 408.026 286.016 408.45C286.703 409.038 287.294 409.646 287.875 410.34C288.581 411.174 289.321 411.772 290.208 412.401C291.094 413.092 291.851 413.906 292.635 414.709C293.186 415.26 293.75 415.772 294.344 416.277C294.884 416.738 295.297 417.134 295.734 417.699C296.377 418.477 297.123 419.013 297.926 419.618C298.602 420.154 299.191 420.741 299.788 421.362C300.238 421.812 300.703 422.228 301.186 422.643C302.193 423.518 303.17 424.422 304.141 425.339C304.489 425.666 304.837 425.994 305.186 426.322C305.361 426.487 305.537 426.652 305.718 426.823C306.243 427.317 306.771 427.809 307.299 428.3C307.467 428.456 307.634 428.612 307.807 428.773C308.125 429.069 308.442 429.364 308.76 429.659C309.827 430.652 310.86 431.672 311.877 432.717C312.093 432.937 312.309 433.158 312.531 433.385C312.743 433.603 312.955 433.82 313.174 434.045C313.844 434.701 314.562 435.28 315.295 435.865C317.058 437.292 318.609 438.905 320.188 440.528C321.508 441.871 322.862 443.092 324.333 444.266C325.434 445.182 326.424 446.202 327.422 447.227C328.673 448.506 329.927 449.755 331.285 450.921C331.997 451.532 332.686 452.168 333.375 452.805C333.515 452.934 333.655 453.063 333.799 453.196C334.737 454.066 335.646 454.959 336.543 455.871C337.175 456.492 337.845 457.064 338.517 457.641C339.141 458.195 339.721 458.788 340.306 459.383C340.766 459.836 341.245 460.258 341.734 460.679C342.617 461.439 343.434 462.247 344.25 463.078C344.733 463.553 345.233 463.991 345.75 464.428C346.502 465.066 347.111 465.743 347.734 466.506C348.533 467.409 349.215 468.026 350.402 468.321C351.706 468.316 352.697 467.514 353.75 466.819C354.084 466.61 354.418 466.402 354.753 466.195C355.438 465.771 356.12 465.343 356.801 464.911C357.419 464.52 358.044 464.147 358.681 463.787C359.327 463.418 359.937 463.039 360.547 462.616C361.673 461.855 362.841 461.18 364.019 460.502C364.85 460.01 365.649 459.484 366.442 458.934C367.042 458.542 367.66 458.19 368.283 457.838C369.066 457.388 369.829 456.909 370.594 456.429C370.765 456.322 370.935 456.215 371.111 456.105C372.405 455.293 373.688 454.465 374.969 453.633C376.246 452.802 377.528 451.99 378.84 451.216C379.718 450.69 380.585 450.146 381.453 449.602C383.493 448.324 385.54 447.059 387.595 445.805C388.145 445.469 388.694 445.13 389.242 444.789C389.722 444.493 390.206 444.203 390.695 443.924C390.899 443.802 391.103 443.681 391.312 443.556C391.489 443.455 391.666 443.354 391.848 443.25C392.312 442.81 392.312 442.81 392.553 442.027C392.472 440.571 391.635 439.988 390.594 439.04C390.412 438.868 390.231 438.696 390.044 438.518C389.691 438.183 389.335 437.849 388.978 437.518C388.387 436.967 387.821 436.393 387.25 435.822C386.888 435.491 386.523 435.163 386.156 434.838C385.024 433.825 383.908 432.796 382.797 431.76C382.638 431.612 382.48 431.465 382.317 431.313C381.444 430.498 380.594 429.667 379.75 428.823C379.279 428.383 378.804 427.945 378.328 427.51C378.197 427.391 378.066 427.271 377.932 427.148C377.122 426.408 376.305 425.676 375.484 424.948C374.574 424.133 373.702 423.286 372.844 422.417C371.938 421.503 371.02 420.63 370.043 419.794C369.335 419.181 368.644 418.55 367.953 417.917C367.766 417.747 367.766 417.747 367.575 417.572C366.558 416.639 365.585 415.669 364.623 414.68C364.407 414.459 364.191 414.239 363.969 414.012C363.757 413.794 363.545 413.576 363.326 413.352C362.656 412.695 361.938 412.116 361.205 411.531C359.442 410.105 357.891 408.492 356.312 406.868C354.992 405.525 353.638 404.304 352.167 403.13C351.066 402.214 350.076 401.195 349.078 400.169C347.831 398.895 346.582 397.651 345.228 396.489C344.435 395.804 343.671 395.089 342.906 394.373C342.663 394.146 342.663 394.146 342.415 393.914C341.266 392.838 340.152 391.734 339.045 390.615C338.406 389.984 337.739 389.398 337.058 388.813C335.922 387.822 334.823 386.79 333.72 385.763C333.215 385.295 332.71 384.828 332.204 384.361C331.85 384.032 331.495 383.703 331.141 383.374C330.975 383.222 330.81 383.069 330.639 382.912C329.72 382.055 328.889 381.169 328.083 380.205C327.663 379.729 327.205 379.366 326.688 379C325.556 378.153 324.592 377.194 323.605 376.184C322.923 375.501 322.21 374.868 321.472 374.245C320.872 373.715 320.316 373.145 319.75 372.578C319.273 372.133 318.795 371.69 318.312 371.25C318.182 371.131 318.052 371.012 317.917 370.889C317.123 370.164 316.322 369.447 315.516 368.735C314.732 368.041 313.981 367.329 313.25 366.579C312.132 365.437 310.997 364.338 309.787 363.293C309.167 362.757 308.551 362.217 307.938 361.673C307.735 361.495 307.533 361.316 307.324 361.132C306.738 360.568 306.256 359.966 305.75 359.33C305.445 359.045 305.133 358.768 304.812 358.502C304.094 357.89 303.422 357.258 302.766 356.58C301.918 355.717 301.017 354.982 300.044 354.265C299.395 353.746 298.83 353.175 298.25 352.58C296.866 351.178 295.49 349.795 293.99 348.516C293.428 348.017 292.903 347.491 292.375 346.956C291.703 346.275 291.025 345.623 290.297 345.003C289.403 344.237 288.577 343.418 287.75 342.581C286.794 341.615 285.826 340.686 284.792 339.801C282.682 337.973 280.686 336.032 278.721 334.049C277.846 333.169 276.956 332.324 276.009 331.52C274.952 330.611 273.936 329.656 272.912 328.711C272.483 328.317 272.052 327.925 271.62 327.533C271.33 327.268 271.04 327.004 270.75 326.739C270.615 326.617 270.48 326.495 270.341 326.37C268.358 324.554 268.358 324.554 268.126 323.541C268.14 323.054 268.194 322.568 268.25 322.083C269.58 321.197 271.235 321.458 272.77 321.71C273.545 321.88 274.311 322.07 275.078 322.271C275.458 322.366 275.458 322.366 275.845 322.462C276.936 322.737 278.024 323.022 279.109 323.317C281.923 324.081 284.758 324.728 287.602 325.37C291.821 326.324 291.821 326.324 293.677 326.91C294.848 327.263 296.044 327.524 297.234 327.802C299.075 328.237 300.909 328.682 302.734 329.176C306.682 330.239 310.678 331.135 314.663 332.04C316.114 332.37 317.543 332.724 318.969 333.145C321.069 333.749 323.195 334.222 325.328 334.692C327.53 335.177 329.714 335.683 331.875 336.332C334.366 337.08 336.892 337.645 339.432 338.198C341.343 338.616 343.23 339.081 345.118 339.593C346.372 339.932 347.63 340.251 348.891 340.566C349.144 340.629 349.398 340.693 349.66 340.758C352.054 341.352 354.459 341.899 356.867 342.439C357.849 342.66 358.831 342.885 359.812 343.113C360.286 343.222 360.286 343.222 360.77 343.333C361.497 343.509 362.209 343.719 362.924 343.94C364.401 344.39 365.9 344.727 367.406 345.065C367.987 345.198 368.567 345.33 369.147 345.463C369.564 345.558 369.564 345.558 369.988 345.655C372.001 346.12 374.002 346.63 375.998 347.164C378.949 347.95 381.912 348.657 384.893 349.317C387.214 349.832 389.51 350.402 391.799 351.047C393.84 351.618 395.901 352.083 397.97 352.542C399.411 352.863 400.841 353.222 402.272 353.586C403.56 353.911 404.854 354.208 406.149 354.504C407.446 354.803 407.446 354.803 408 355.08C408.815 355.151 409.349 355.152 410.094 354.799C410.568 354.339 410.568 354.339 410.594 353.596C410.5 352.834 410.45 352.444 410 351.83C409.65 351.597 409.299 351.365 408.941 351.144C408.217 350.629 407.632 349.981 407.015 349.345C406.543 348.874 406.058 348.446 405.547 348.018C404.665 347.265 403.896 346.43 403.125 345.565C402.233 344.568 401.34 343.716 400.24 342.952C399.436 342.344 398.761 341.611 398.059 340.89C397.537 340.369 396.999 339.887 396.438 339.41C395.843 338.902 395.389 338.446 394.891 337.832C394.187 337.008 393.428 336.427 392.565 335.778C391.883 335.24 391.292 334.646 390.688 334.022C390.072 333.404 389.413 332.841 388.748 332.276C388.14 331.735 387.575 331.158 387 330.583C386.306 329.917 385.606 329.257 384.906 328.598C384.724 328.426 384.541 328.253 384.354 328.076C383.376 327.155 382.388 326.257 381.354 325.4C381 325.083 381 325.083 380.516 324.474C379.926 323.741 379.266 323.181 378.552 322.573C377.965 322.053 377.422 321.505 376.875 320.943C376.186 320.242 375.503 319.624 374.703 319.052C373.875 318.46 373.276 317.814 372.637 317.027C372.08 316.389 371.442 315.866 370.798 315.319C370.185 314.777 369.618 314.201 369.047 313.616C368.239 312.797 367.422 312.056 366.516 311.35C364.879 310.048 363.438 308.556 361.975 307.064C360.92 305.99 359.85 304.961 358.707 303.982C358.283 303.614 357.874 303.236 357.469 302.848C355.379 300.858 353.792 299.888 350.956 299.29C349.983 299.082 349.014 298.861 348.046 298.633C347.863 298.589 347.679 298.546 347.49 298.502C345.215 297.963 342.949 297.39 340.682 296.818C337.558 296.03 334.43 295.256 331.282 294.567C330.01 294.288 328.748 293.967 327.484 293.649C327.092 293.55 327.092 293.55 326.691 293.45C325.392 293.125 324.094 292.797 322.797 292.466C320.601 291.909 318.404 291.366 316.193 290.871C316.018 290.831 315.842 290.792 315.662 290.752C314.795 290.558 313.928 290.366 313.06 290.177C312.746 290.107 312.431 290.037 312.106 289.966C311.687 289.874 311.687 289.874 311.258 289.78C310.554 289.601 309.92 289.363 309.25 289.087C308.919 288.997 308.585 288.916 308.25 288.844C308.053 288.8 307.857 288.757 307.655 288.713C307.439 288.666 307.223 288.619 307 288.571C304.549 288.027 302.106 287.45 299.667 286.858C299.271 286.763 298.875 286.667 298.479 286.572C296.15 286.011 293.834 285.419 291.531 284.755C290.406 284.434 289.294 284.19 288.141 283.994C286.37 283.684 284.644 283.251 282.906 282.791C279.877 281.988 276.834 281.256 273.781 280.548C271.431 280.002 269.089 279.43 266.75 278.838C266.501 278.775 266.251 278.712 265.994 278.647C265.769 278.59 265.543 278.532 265.311 278.474C262.542 277.773 259.767 277.105 256.984 276.463C254.73 275.943 252.486 275.401 250.25 274.807C248.211 274.265 246.166 273.773 244.106 273.312C242.318 272.912 240.533 272.498 238.75 272.073C238.503 272.015 238.255 271.956 238 271.896C236.671 271.578 235.357 271.229 234.046 270.845C232.218 270.317 230.374 269.9 228.516 269.495C225.926 268.923 223.354 268.308 220.792 267.622C218.93 267.127 217.057 266.696 215.177 266.277C213.601 265.925 212.045 265.527 210.487 265.101C209.226 264.762 207.957 264.457 206.688 264.152C206.458 264.096 206.228 264.04 205.992 263.983C205.777 263.932 205.561 263.88 205.34 263.828C205.148 263.782 204.956 263.736 204.758 263.688C202.728 263.293 201.108 264.749 199.53 265.826Z" fill="currentColor"></path>
</svg>